 <svg version="1.0" xmlns="http://www.w3.org/2000/svg"  width="256.000000pt" height="256.000000pt" viewBox="0 0 256.000000 256.000000"  preserveAspectRatio="xMidYMid meet">  <g transform="translate(0.000000,256.000000) scale(0.100000,-0.100000)" fill="#000000" stroke="none"> <path d="M1370 2250 c-213 -48 -386 -184 -541 -425 -53 -82 -98 -175 -130 -265 -12 -36 -23 -66 -25 -68 -1 -2 -30 11 -64 28 l-63 32 6 -34 c4 -18 13 -67 21 -108 8 -41 31 -169 52 -285 20 -116 38 -211 39 -213 2 -2 52 33 111 78 60 45 121 89 137 98 15 9 27 20 27 24 0 4 4 8 10 8 5 0 49 29 97 66 48 36 99 73 115 82 31 18 36 32 12 32 -10 0 -44 10 -76 22 -55 20 -59 23 -53 47 10 42 84 209 110 252 14 21 25 41 25 43 0 16 102 146 174 222 222 237 475 318 687 221 30 -14 90 -51 132 -81 46 -33 79 -51 83 -44 4 6 3 13 -2 17 -136 96 -307 188 -419 226 -138 46 -326 56 -465 25z m353 -29 c7 -5 22 -9 33 -9 22 2 115 -21 127 -32 5 -4 -32 -9 -81 -12 -53 -3 -103 -12 -122 -22 -18 -8 -37 -13 -43 -9 -5 3 -8 2 -5 -3 3 -5 -14 -18 -38 -30 -24 -12 -44 -17 -44 -12 0 5 -12 -2 -27 -16 -130 -117 -134 -120 -145 -105 -8 11 -9 11 -4 -3 3 -10 -7 -29 -28 -50 -54 -55 -135 -154 -151 -184 -8 -16 -15 -23 -15 -16 0 6 -4 12 -9 12 -5 0 -7 -9 -4 -19 3 -12 -9 -41 -30 -73 -19 -29 -42 -69 -51 -88 -33 -65 -76 -198 -70 -214 3 -8 30 -25 59 -37 30 -12 52 -26 49 -30 -2 -5 -11 -6 -18 -3 -9 3 -17 -3 -21 -15 -3 -12 -12 -21 -19 -21 -7 0 -21 -8 -32 -19 -44 -40 -130 -95 -149 -93 -14 1 -16 -1 -6 -7 10 -6 6 -13 -16 -28 -15 -11 -38 -24 -51 -27 -12 -4 -20 -12 -17 -17 4 -5 4 -9 1 -9 -2 0 -12 -3 -22 -7 -13 -5 -15 -3 -9 7 5 8 4 11 -3 6 -6 -4 -9 -12 -7 -19 2 -7 -11 -22 -29 -33 l-34 -22 -11 37 c-7 20 -16 65 -21 101 -5 36 -16 94 -24 130 -8 36 -17 83 -20 105 -3 22 -12 68 -20 103 -7 34 -11 62 -9 62 3 0 20 -7 39 -16 28 -13 38 -14 62 -3 21 9 28 18 24 31 -3 14 0 17 14 12 16 -5 16 -4 4 5 -12 9 -13 14 -2 31 6 11 12 27 12 36 0 8 7 22 15 30 8 9 15 24 15 33 0 10 7 24 15 31 8 7 15 20 15 30 0 10 7 23 15 30 8 7 15 16 15 21 0 14 91 139 101 139 6 0 8 4 5 9 -8 12 137 158 193 194 25 17 51 27 63 24 14 -4 17 -2 9 7 -13 16 63 57 114 61 18 2 43 9 55 15 12 7 33 10 46 7 14 -2 27 0 31 6 8 13 259 2 276 -12z"/> <path d="M1585 2160 c3 -5 8 -10 11 -10 2 0 4 5 4 10 0 6 -5 10 -11 10 -5 0 -7 -4 -4 -10z"/> <path d="M1565 2130 c-3 -5 -2 -10 4 -10 5 0 13 5 16 10 3 6 2 10 -4 10 -5 0 -13 -4 -16 -10z"/> <path d="M1036 2023 c-6 -14 -5 -15 5 -6 7 7 10 15 7 18 -3 3 -9 -2 -12 -12z"/> <path d="M1010 2006 c0 -2 8 -10 18 -17 15 -13 16 -12 3 4 -13 16 -21 21 -21 13z"/> <path d="M1000 1956 c0 -2 7 -7 16 -10 8 -3 12 -2 9 4 -6 10 -25 14 -25 6z"/> <path d="M1063 1564 c-7 -7 -13 -21 -13 -31 0 -12 5 -9 15 11 17 33 16 41 -2 20z"/> <path d="M905 1150 c-3 -5 -2 -10 4 -10 5 0 13 5 16 10 3 6 2 10 -4 10 -5 0 -13 -4 -16 -10z"/> <path d="M830 1116 c0 -2 7 -7 16 -10 8 -3 12 -2 9 4 -6 10 -25 14 -25 6z"/> <path d="M681 1074 c0 -11 3 -14 6 -6 3 7 2 16 -1 19 -3 4 -6 -2 -5 -13z"/> <path d="M716 1034 c-6 -15 -4 -15 11 -3 10 7 20 15 22 16 2 2 -3 3 -11 3 -9 0 -19 -7 -22 -16z"/> <path d="M2100 2141 c0 -6 4 -13 10 -16 6 -3 7 1 4 9 -7 18 -14 21 -14 7z"/> <path d="M2140 2129 c0 -5 5 -7 10 -4 6 3 10 8 10 11 0 2 -4 4 -10 4 -5 0 -10 -5 -10 -11z"/> <path d="M1785 2090 c-3 -5 19 -16 49 -25 37 -12 68 -31 101 -63 48 -48 108 -159 122 -226 8 -37 12 -41 88 -73 102 -44 121 -52 229 -102 49 -23 91 -39 93 -37 5 5 -30 92 -59 146 -129 241 -310 366 -551 383 -37 3 -69 1 -72 -3z m185 -38 c0 -8 74 -31 107 -34 9 -1 10 -5 3 -13 -8 -9 -4 -11 13 -8 14 3 29 -2 36 -11 8 -9 20 -16 27 -16 17 0 18 -16 2 -24 -7 -3 -2 -3 11 0 17 5 21 3 16 -6 -5 -8 -4 -11 3 -6 13 8 74 -52 67 -65 -4 -5 2 -6 11 -2 13 5 16 3 11 -10 -3 -9 -2 -16 2 -14 10 2 71 -71 71 -85 0 -4 11 -26 25 -48 14 -22 22 -40 18 -40 -5 0 -3 -4 2 -8 6 -4 16 -19 22 -34 12 -26 12 -26 -15 -13 -15 7 -39 19 -54 26 -15 6 -25 16 -22 20 3 5 -1 6 -9 3 -12 -4 -80 24 -214 88 -12 6 -21 14 -21 17 4 19 -16 121 -21 112 -4 -6 -13 4 -21 24 -8 19 -16 35 -19 35 -3 0 -17 17 -31 38 -14 20 -33 43 -42 50 -24 17 -23 32 2 32 11 0 20 -4 20 -8z"/> <path d="M2035 2000 c3 -5 8 -10 11 -10 2 0 4 5 4 10 0 6 -5 10 -11 10 -5 0 -7 -4 -4 -10z"/> <path d="M2200 1759 c0 -5 5 -7 10 -4 6 3 10 8 10 11 0 2 -4 4 -10 4 -5 0 -10 -5 -10 -11z"/> <path d="M2356 1697 c3 -10 9 -15 12 -12 3 3 0 11 -7 18 -10 9 -11 8 -5 -6z"/> <path d="M2350 1661 c0 -9 30 -24 36 -18 2 1 -6 8 -16 15 -11 7 -20 8 -20 3z"/> <path d="M2226 2068 c3 -4 11 -5 19 -1 21 7 19 12 -4 10 -11 0 -18 -5 -15 -9z"/> <path d="M1908 1588 c-7 -7 -48 -35 -91 -63 -42 -27 -113 -74 -157 -102 -44 -29 -82 -53 -84 -53 -3 0 -34 -20 -69 -45 -36 -25 -70 -45 -76 -45 -6 0 -11 -4 -11 -9 0 -5 -9 -11 -21 -14 -31 -8 -18 -19 56 -47 78 -29 78 -30 19 -156 -112 -240 -329 -473 -529 -569 -223 -107 -431 -74 -624 101 -23 20 -45 34 -49 30 -8 -9 51 -63 133 -121 101 -72 250 -144 375 -183 166 -52 409 -33 561 43 66 33 184 119 220 160 15 17 42 47 60 67 51 56 55 61 112 145 52 77 101 170 128 246 7 20 16 37 21 37 13 0 82 -34 96 -48 15 -13 36 -6 26 9 -3 5 -7 24 -9 42 -3 18 -11 84 -19 147 -42 313 -49 377 -47 408 2 35 -1 38 -21 20z m-8 -58 c0 -5 -4 -10 -10 -10 -5 0 -10 5 -10 10 0 6 5 10 10 10 6 0 10 -4 10 -10z m-1 -27 c7 -5 20 -95 37 -253 8 -80 18 -152 21 -160 4 -8 8 -31 9 -52 l2 -36 -34 14 c-51 21 -73 18 -85 -13 -23 -58 -124 -253 -131 -253 -5 0 -8 -7 -8 -16 0 -11 -5 -14 -16 -10 -12 5 -15 2 -10 -10 7 -17 -51 -94 -71 -94 -7 0 -13 -6 -13 -14 0 -8 -9 -21 -20 -29 -11 -8 -17 -16 -14 -19 8 -9 -47 -48 -59 -41 -5 3 -7 2 -4 -4 4 -5 -5 -20 -20 -33 -18 -16 -28 -19 -33 -10 -5 9 -9 9 -14 1 -4 -6 -2 -11 3 -11 6 0 11 -5 11 -11 0 -6 -9 -9 -20 -6 -11 3 -18 1 -15 -3 7 -11 -50 -52 -59 -43 -3 3 -6 2 -6 -4 0 -13 -37 -29 -128 -55 -128 -35 -351 -33 -409 5 -8 5 -13 3 -14 -5 0 -10 -2 -10 -6 0 -2 6 -20 12 -39 12 -24 0 -33 4 -28 12 4 6 3 8 -3 5 -11 -7 -71 9 -85 22 -5 4 10 7 32 7 22 0 40 -3 40 -7 0 -3 17 -1 38 7 20 7 47 13 60 14 13 0 36 7 52 15 16 8 36 12 44 9 9 -3 16 -1 16 5 0 6 7 11 15 11 8 0 15 4 15 8 0 4 9 8 20 9 11 1 27 9 36 17 8 9 19 16 23 16 4 0 17 8 29 17 54 47 63 53 72 53 6 0 10 5 10 11 0 6 7 9 15 6 8 -4 17 -2 20 3 4 6 0 10 -7 11 -9 0 -9 2 2 6 21 9 40 30 33 37 -4 3 1 6 10 6 10 0 17 3 17 8 0 10 60 76 60 66 0 -5 6 1 13 13 6 12 35 52 64 89 28 37 60 85 70 106 10 21 23 36 29 34 7 -3 9 5 6 20 -2 14 0 24 7 24 6 0 11 7 11 14 0 8 11 36 24 61 14 25 26 54 27 63 3 36 -2 52 -16 52 -8 0 -15 5 -15 10 0 6 -7 10 -15 10 -9 0 -18 7 -21 15 -4 11 -13 14 -28 9 -21 -6 -21 -6 -1 10 11 8 26 16 33 16 7 0 10 5 6 11 -4 8 4 9 27 5 22 -4 27 -3 15 2 -18 8 -15 11 20 31 21 12 42 22 46 22 4 0 21 14 39 30 18 16 38 28 46 25 8 -3 11 -1 8 4 -3 5 7 16 22 22 15 7 33 20 40 28 7 8 13 11 13 5 0 -6 3 -6 8 0 4 6 27 25 51 43 36 26 47 29 60 20 9 -7 18 -14 20 -15z"/> <path d="M1710 1389 c0 -5 5 -7 10 -4 6 3 10 8 10 11 0 2 -4 4 -10 4 -5 0 -10 -5 -10 -11z"/> <path d="M1926 1065 c-3 -8 -1 -15 4 -15 13 0 22 18 11 24 -5 3 -11 -1 -15 -9z"/> <path d="M1878 1043 c7 -3 16 -2 19 1 4 3 -2 6 -13 5 -11 0 -14 -3 -6 -6z"/> <path d="M1490 990 c0 -5 5 -10 11 -10 5 0 7 5 4 10 -3 6 -8 10 -11 10 -2 0 -4 -4 -4 -10z"/> <path d="M1786 935 c-3 -8 -1 -15 4 -15 6 0 10 7 10 15 0 8 -2 15 -4 15 -2 0 -6 -7 -10 -15z"/> <path d="M1402 840 c-7 -11 -10 -20 -6 -20 7 0 34 27 34 34 0 13 -16 5 -28 -14z"/> <path d="M1365 800 c-3 -6 1 -7 9 -4 18 7 21 14 7 14 -6 0 -13 -4 -16 -10z"/> <path d="M1208 383 c7 -3 16 -2 19 1 4 3 -2 6 -13 5 -11 0 -14 -3 -6 -6z"/> <path d="M1096 1373 c-6 -14 -5 -15 5 -6 7 7 10 15 7 18 -3 3 -9 -2 -12 -12z"/> <path d="M80 1043 c0 -16 31 -97 62 -162 105 -226 272 -362 485 -397 103 -16 113 -17 113 -6 0 5 -17 14 -39 20 -53 16 -110 64 -148 125 -32 51 -69 148 -75 196 -2 19 -33 39 -179 115 -96 50 -185 97 -197 104 -12 7 -22 9 -22 5z m83 -66 c4 3 7 2 7 -4 0 -12 50 -38 81 -42 6 0 9 -8 5 -16 -3 -8 -1 -15 4 -15 6 0 10 5 10 10 0 12 93 -35 111 -56 6 -7 15 -11 20 -8 22 13 46 -18 58 -73 8 -32 18 -61 24 -64 5 -4 10 -20 11 -37 1 -19 5 -28 14 -25 6 3 12 -2 12 -12 0 -9 21 -42 48 -73 26 -31 41 -52 34 -48 -7 4 -26 10 -43 13 -39 6 -80 28 -71 38 4 5 -1 5 -11 2 -15 -6 -48 6 -87 31 -2 2 2 8 10 13 13 9 13 10 -1 6 -9 -3 -31 8 -50 24 -19 16 -37 29 -41 29 -5 0 -8 6 -8 13 -1 6 -19 30 -40 52 -26 26 -38 46 -34 57 3 10 -3 21 -16 28 -11 6 -20 16 -20 23 0 7 -9 23 -20 37 -11 14 -20 32 -20 40 0 13 1 13 10 0 6 -10 10 -11 10 -3 0 7 -9 18 -20 25 -11 7 -20 21 -20 32 0 14 3 16 13 7 8 -6 17 -8 20 -4z"/> <path d="M401 827 c2 -1 12 -9 22 -16 15 -12 17 -12 11 3 -3 9 -13 16 -22 16 -8 0 -13 -1 -11 -3z"/> <path d="M445 620 c3 -5 8 -10 11 -10 2 0 4 5 4 10 0 6 -5 10 -11 10 -5 0 -7 -4 -4 -10z"/> <path d="M706 902 c-3 -5 1 -9 9 -9 8 0 12 4 9 9 -3 4 -7 8 -9 8 -2 0 -6 -4 -9 -8z"/> <path d="M755 900 c-3 -5 -1 -10 4 -10 6 0 11 5 11 10 0 6 -2 10 -4 10 -3 0 -8 -4 -11 -10z"/> <path d="M328 488 c5 -5 16 -8 23 -6 8 3 3 7 -10 11 -17 4 -21 3 -13 -5z"/> </g> </svg> 